# xmcd CD database file
#
# Track frame offsets:
#	150
#	27069
#	42452
#	60722
#	93672
#	112470
#	130031
#	146473
#	177752
#	196352
#	212589
#	227342
#	264264
#	284036
#	303868
#
# Disc length: 4403 seconds
#
# Revision: 1
# Processed by: cddbd v1.5.2PL0 Copyright (c) Steve Scherf et al.
# Submitted via: CDex 1.51
#
DISCID=d711310f
DTITLE=Barry White - Can't Get Enough Of Your Love
DYEAR=1996
DGENRE=Soul
TTITLE0=Practice What You Preach
TTITLE1=Your're The First, The Last, My Everything
TTITLE2=Can't Get Enough Of Your Love Babe
TTITLE3=Never never Gonna Give You Up (12" Remix)
TTITLE4=I'll Do For Yoy Anything You Want Me To
TTITLE5=I'm Gonna Love You A Little Bit More Babe
TTITLE6=What Am I gonna Do With You
TTITLE7=It's Extacy When You Lay Down Next To Me
TTITLE8=Love's Theme
TTITLE9=Let The Music Play
TTITLE10=Oh What A Night For Dancing
TTITLE11=I've Got So Much To Give
TTITLE12=I'm Qualified To Satisfy You
TTITLE13=Baby WE Better Try And Get It Together
TTITLE14=I Found Someone
EXTD=The Best Of Barry White YEAR: 1996
EXTT0=
EXTT1=
EXTT2=
EXTT3=
EXTT4=
EXTT5=
EXTT6=
EXTT7=
EXTT8=
EXTT9=
EXTT10=
EXTT11=
EXTT12=
EXTT13=
EXTT14=
PLAYORDER=
